# Blender 5.1.0
# www.blender.org
mtllib hat_ds_model.mtl
o vsn_mesh_0__mesh_0_
v -38.642300 16.559500 -17.220400
v -40.100002 18.675800 -14.511598
v -39.418499 18.170202 -18.478798
v -40.910000 20.286499 -15.769999
v -39.418499 18.170202 -18.478798
v -36.983700 17.232702 -19.678699
v -38.642300 16.559500 -17.220400
v 38.642300 16.559500 -17.220400
v 36.983700 17.232702 -19.678699
v 39.418499 18.170202 -18.478798
v -40.910000 53.713902 -41.886395
v -39.418499 51.597603 -44.595196
v 39.418499 51.597603 -44.595196
v 36.983700 50.668102 -45.784897
v 36.765400 54.032501 -46.497597
v 38.642300 53.205101 -45.851093
v 39.418499 18.170202 -18.478798
v 40.910000 20.286499 -15.769999
v 38.642300 16.559500 -17.220400
v 40.096100 18.675800 -14.511598
v 40.910000 53.713902 -41.886395
v 39.418499 51.597603 -44.595196
v 38.642300 53.205101 -45.851093
v 40.096100 55.321503 -43.142296
v -38.642300 53.205101 -45.851093
v -36.765400 54.032501 -46.497597
v -36.983700 50.668102 -45.784897
v -21.270000 15.509102 -21.884800
v -21.369999 48.936504 -48.001194
v -38.642300 53.205101 -45.851093
v -40.100002 55.321503 -43.142296
v -39.418499 51.597603 -44.595196
v 21.197100 54.032501 -46.497597
v 21.366499 48.936504 -48.001194
v 21.265099 15.509102 -21.884800
v -21.369999 48.936504 -48.001194
v 21.366499 48.936504 -48.001194
v -21.270000 15.509102 -21.884800
v 21.265099 15.509102 -21.884800
v -21.200001 54.032501 -46.497597
v 38.132000 56.148903 -43.788795
v 36.765400 54.032501 -46.497597
v 21.197100 54.032501 -46.497597
v 40.910000 53.713902 -41.886395
v 40.096100 55.321503 -43.142296
v 39.223297 55.510502 -41.243694
v 38.132000 56.148903 -43.788795
v -36.765400 54.032501 -46.497597
v -38.129997 56.148903 -43.788795
v -21.200001 54.032501 -46.497597
v 21.197100 54.032501 -46.497597
v -21.200001 54.032501 -46.497597
v -38.129997 56.148903 -43.788795
v -40.100002 55.321503 -43.142296
v -39.223297 55.510502 -41.243694
v -40.910000 53.713902 -41.886395
v -40.100002 18.675800 -14.511598
v -39.151600 20.480000 -13.871499
v -40.910000 20.286499 -15.769999
v -20.189999 51.105904 -37.801796
v -20.189999 25.798601 -18.027498
v 20.189999 51.105904 -37.801796
v 20.189999 25.798601 -18.027498
v 36.765400 15.732101 -16.574001
v 36.983700 17.232702 -19.678699
v 38.642300 16.559500 -17.220400
v 21.197100 15.732101 -16.574001
v 21.265099 15.509102 -21.884800
v 38.132000 17.848400 -13.865198
v 36.765400 15.732101 -16.574001
v 40.096100 18.675800 -14.511598
v 38.642300 16.559500 -17.220400
v 21.197100 15.732101 -16.574001
v 40.910000 20.286499 -15.769999
v 39.151600 20.480000 -13.871499
v 40.096100 18.675800 -14.511598
v 38.132000 17.848400 -13.865198
v 40.910000 53.713902 -41.886395
v 39.223297 55.510502 -41.243694
v -38.642300 16.559500 -17.220400
v -36.983700 17.232702 -19.678699
v -36.765400 15.732101 -16.574001
v -21.270000 15.509102 -21.884800
v -21.200001 15.732101 -16.574001
v 21.197100 15.732101 -16.574001
v -21.200001 15.732101 -16.574001
v 21.265099 15.509102 -21.884800
v -21.270000 15.509102 -21.884800
v -38.129997 17.848400 -13.865198
v -40.100002 18.675800 -14.511598
v -36.765400 15.732101 -16.574001
v -38.642300 16.559500 -17.220400
v -38.129997 17.848400 -13.865198
v -39.151600 20.480000 -13.871499
v -40.100002 18.675800 -14.511598
v -21.200001 15.732101 -16.574001
v -39.223297 55.510502 -41.243694
v -39.151600 20.480000 -13.871499
v -20.189999 51.105904 -37.801796
v -20.189999 25.798601 -18.027498
v 39.151600 20.480000 -13.871499
v 20.189999 25.798601 -18.027498
v 39.223297 55.510502 -41.243694
v 20.189999 51.105904 -37.801796
v 19.520199 -6.055861 21.825397
v 20.390699 -6.055861 21.825397
v 19.520199 -5.129312 20.314199
v 20.390699 -5.129312 20.314199
v 20.765799 21.639599 -13.020497
v 20.771200 24.355200 -14.790398
v -20.770000 21.639599 -13.020497
v -20.770000 24.355200 -14.790398
v 20.765799 18.297499 -13.178098
v -20.770000 18.297499 -13.178098
v 20.771200 16.182001 -15.442198
v -20.770000 16.182001 -15.442198
v 20.775700 25.464401 -17.860298
v -20.770000 25.464401 -17.860298
v -26.581299 5.375700 4.287651
v -30.771898 5.375700 4.287651
v -26.581299 4.095970 3.548801
v -30.771898 4.095970 3.548801
v -26.581299 7.471000 0.658476
v -30.771898 7.471000 0.658476
v -26.581299 5.375700 4.287651
v -30.771898 5.375700 4.287651
v -26.581299 6.191260 -0.080376
v -30.771898 6.191260 -0.080376
v -26.581299 7.471000 0.658476
v -30.771898 7.471000 0.658476
v -39.153099 6.191260 -0.080376
v -39.153099 4.095970 3.548801
v -39.153099 7.471000 0.658476
v -39.153099 5.375700 4.287651
v -34.962498 7.471000 0.658476
v -34.962498 6.191260 -0.080376
v -30.771898 9.638870 -3.096389
v -30.771898 8.359131 -3.835239
v -34.962498 9.638870 -3.096389
v -34.962498 8.359131 -3.835239
v -34.962498 5.375700 4.287651
v -34.962498 7.471000 0.658476
v -39.153099 5.375700 4.287651
v -39.153099 7.471000 0.658476
v -30.771898 5.375700 4.287651
v -30.771898 7.471000 0.658476
v -34.962498 5.375700 4.287651
v -34.962498 7.471000 0.658476
v -34.962498 4.095970 3.548801
v -34.962498 5.375700 4.287651
v -30.771898 1.928090 7.303650
v -30.771898 3.207820 8.042511
v -34.962498 1.928090 7.303650
v -34.962498 3.207820 8.042511
v -30.771898 7.471000 0.658476
v -30.771898 6.191260 -0.080376
v -30.771898 9.638870 -3.096389
v -30.771898 8.359131 -3.835239
v -30.771898 6.191260 -0.080376
v -34.962498 6.191260 -0.080376
v -30.771898 8.359131 -3.835239
v -34.962498 8.359131 -3.835239
v -34.962498 6.191260 -0.080376
v -34.962498 7.471000 0.658476
v -34.962498 8.359131 -3.835239
v -34.962498 9.638870 -3.096389
v -34.962498 7.471000 0.658476
v -30.771898 7.471000 0.658476
v -34.962498 9.638870 -3.096389
v -30.771898 9.638870 -3.096389
v -30.771898 4.095970 3.548801
v -30.771898 5.375700 4.287651
v -30.771898 1.928090 7.303650
v -30.771898 3.207820 8.042511
v -30.771898 5.375700 4.287651
v -34.962498 5.375700 4.287651
v -30.771898 3.207820 8.042511
v -34.962498 3.207820 8.042511
v -34.962498 5.375700 4.287651
v -34.962498 4.095970 3.548801
v -34.962498 3.207820 8.042511
v -34.962498 1.928090 7.303650
v -34.962498 4.095970 3.548801
v -30.771898 4.095970 3.548801
v -34.962498 1.928090 7.303650
v -30.771898 1.928090 7.303650
v 8.230000 47.557701 -47.238495
v 9.849999 46.755203 -46.613495
v -8.230000 47.557701 -47.238495
v -9.845270 46.755203 -46.613495
v 9.849999 44.958801 -45.214294
v -9.845270 44.958801 -45.214294
v 8.230000 44.249401 -44.661797
v -8.230000 44.249401 -44.661797
v 45.989498 -10.043801 18.924698
v 45.676498 9.963801 -15.570499
v 44.624199 -7.461751 19.756897
v 44.804798 12.342300 -14.556799
v 45.081497 -11.190102 20.912098
v 43.742001 -8.591322 21.716398
v 44.464500 -13.955702 14.688000
v 44.375298 4.840682 -17.559700
v 45.989498 -10.043801 18.924698
v 45.676498 9.963801 -15.570499
v 40.972599 0.722372 -18.726002
v 43.218597 7.267352 -22.299498
v 42.686398 -15.008302 16.512499
v 36.967197 -17.274099 13.084397
v 40.309097 -16.107302 10.698197
v 40.309097 -16.107302 10.698197
v 36.967197 -17.274099 13.084397
v 36.533398 -17.016802 9.185678
v 45.081497 -11.190102 20.912098
v 40.972599 0.722372 -18.726002
v 37.815800 -0.480489 -20.219500
v 44.045200 14.562302 -18.819799
v 44.630600 12.571801 -20.693197
v 43.218597 7.267352 -22.299498
v 44.630600 12.571801 -20.693197
v 44.375298 4.840682 -17.559700
v 45.676498 9.963801 -15.570499
v 43.843700 13.672200 -13.806799
v 43.278797 -6.101322 20.378798
v 42.144100 -6.570723 22.010798
v 43.241497 15.549902 -17.694599
v -36.533398 -17.016802 9.185678
v -36.967197 -17.274099 13.084397
v 40.382004 -15.436602 17.246700
v 42.817799 -12.141702 22.373198
v 20.155800 -12.301302 22.632898
v 40.382004 -15.436602 17.246700
v 42.817799 -12.141702 22.373198
v -40.382004 -15.436602 17.246700
v -20.155800 -12.301302 22.632898
v 40.785900 16.339003 -17.694599
v 40.983200 14.253401 -13.509799
v 42.817799 -12.141702 22.373198
v 45.081497 -11.190102 20.912098
v 41.507599 -9.641572 23.212698
v 43.742001 -8.591322 21.716398
v 20.155800 -12.301302 22.632898
v 19.641800 -9.990643 23.631598
v -20.155800 -12.301302 22.632898
v -19.641800 -9.990643 23.631598
v 19.641800 -9.990643 23.631598
v 20.155800 -12.301302 22.632898
v 36.533398 -17.016802 9.185678
v -37.815800 -0.480489 -20.219500
v 36.967197 -17.274099 13.084397
v -36.967197 -17.274099 13.084397
v -40.382004 -15.436602 17.246700
v 41.104599 15.334700 -20.300299
v 44.045200 14.562302 -18.819799
v 44.630600 12.571801 -20.693197
v 42.122002 13.470602 -22.233200
v -45.989498 -10.043801 18.924698
v -44.624199 -7.461751 19.756897
v -45.676498 9.963801 -15.570499
v -44.804798 12.342300 -14.556799
v -45.081497 -11.190102 20.912098
v -43.742001 -8.591322 21.716398
v -44.464500 -13.955702 14.688000
v -45.989498 -10.043801 18.924698
v -44.375298 4.840682 -17.559700
v -45.676498 9.963801 -15.570499
v -40.972599 0.722372 -18.726002
v -43.218597 7.267352 -22.299498
v -42.686398 -15.008302 16.512499
v -40.309097 -16.107302 10.698197
v -36.967197 -17.274099 13.084397
v -40.309097 -16.107302 10.698197
v -36.533398 -17.016802 9.185678
v -45.081497 -11.190102 20.912098
v -40.972599 0.722372 -18.726002
v -44.045200 14.562302 -18.819799
v -44.630600 12.571801 -20.693197
v -43.218597 7.267352 -22.299498
v -44.375298 4.840682 -17.559700
v -44.630600 12.571801 -20.693197
v -45.676498 9.963801 -15.570499
v -43.843700 13.672200 -13.806799
v -43.278797 -6.101322 20.378798
v -42.144100 -6.570723 22.010798
v -43.241497 15.549902 -17.694599
v -36.967197 -17.274099 13.084397
v -40.382004 -15.436602 17.246700
v -42.817799 -12.141702 22.373198
v -20.155800 -12.301302 22.632898
v -42.817799 -12.141702 22.373198
v -40.382004 -15.436602 17.246700
v -42.817799 -12.141702 22.373198
v -41.507599 -9.641572 23.212698
v -45.081497 -11.190102 20.912098
v -43.742001 -8.591322 21.716398
v -19.641800 -9.990643 23.631598
v -20.155800 -12.301302 22.632898
v -41.104599 15.334700 -20.300299
v -42.122002 13.470602 -22.233200
v -42.122002 13.470602 -22.233200
v -40.543198 7.914342 -23.477198
v -40.785900 16.339003 -17.694599
v 41.104599 15.334700 -20.300299
v 40.785900 16.339003 -17.694599
v -30.573299 7.914342 -23.477198
v -30.571899 10.692502 -22.855198
v -32.843098 13.470602 -22.233200
v -32.843098 13.470602 -22.233200
v 32.843098 13.470602 -22.233200
v 42.122002 13.470602 -22.233200
v -40.983200 14.253401 -13.509799
v 40.983200 14.253401 -13.509799
v 20.240000 13.282101 -11.827398
v 40.983200 14.253401 -13.509799
v -20.240000 13.282101 -11.827398
v -40.983200 14.253401 -13.509799
v 40.506199 -6.691042 22.766897
v 20.240000 -0.942122 12.809500
v 43.278797 -6.101322 20.378798
v 40.506199 -6.691042 22.766897
v 42.144100 -6.570723 22.010798
v -20.240000 13.282101 -11.827398
v -20.240000 -0.942122 12.809500
v 20.240000 13.282101 -11.827398
v 20.240000 -0.942122 12.809500
v 43.843700 13.672200 -13.806799
v 43.742001 -8.591322 21.716398
v 41.507599 -9.641572 23.212698
v 20.240000 -6.691042 22.766897
v 19.819199 -8.355812 23.425497
v -19.819199 -8.355812 23.425497
v -20.240000 -6.691042 22.766897
v -41.507599 -9.641572 23.212698
v -40.506199 -6.691042 22.766897
v 19.641800 -9.990643 23.631598
v -19.641800 -9.990643 23.631598
v -43.278797 -6.101322 20.378798
v -42.144100 -6.570723 22.010798
v -43.843700 13.672200 -13.806799
v -43.742001 -8.591322 21.716398
v -40.506199 -6.691042 22.766897
v -20.240000 -0.942122 12.809500
v 20.240000 -6.691042 22.766897
v -20.240000 -6.691042 22.766897
v 43.218597 7.267352 -22.299498
v 40.972599 0.722372 -18.726002
v 38.147003 2.965881 -22.611799
v 38.147003 2.965881 -22.611799
v 40.972599 0.722372 -18.726002
v 37.815800 -0.480489 -20.219500
v 40.543198 7.914342 -23.477198
v 42.122002 13.470602 -22.233200
v 44.630600 12.571801 -20.693197
v 40.543198 7.914342 -23.477198
v 43.218597 7.267352 -22.299498
v 30.573299 7.914342 -23.477198
v 38.147003 2.965881 -22.611799
v 22.150000 7.914342 -23.477198
v 30.573299 7.914342 -23.477198
v -22.150000 7.914342 -23.477198
v -38.147003 2.965881 -22.611799
v -30.573299 7.914342 -23.477198
v -38.147003 2.965881 -22.611799
v -40.543198 7.914342 -23.477198
v -30.573299 7.914342 -23.477198
v -30.571899 10.692502 -22.855198
v -32.843098 13.470602 -22.233200
v -24.420000 10.692502 -22.855198
v 32.843098 13.470602 -22.233200
v 24.420000 10.692502 -22.855198
v 30.571899 10.692502 -22.855198
v 30.571899 10.692502 -22.855198
v 30.573299 7.914342 -23.477198
v 32.843098 13.470602 -22.233200
v -22.150000 7.914342 -23.477198
v 22.150000 7.914342 -23.477198
v 22.150000 7.914342 -23.477198
v 30.571899 10.692502 -22.855198
v 24.420000 10.692502 -22.855198
v -43.218597 7.267352 -22.299498
v -40.972599 0.722372 -18.726002
v -40.972599 0.722372 -18.726002
v -38.147003 2.965881 -22.611799
v -37.815800 -0.480489 -20.219500
v 38.147003 2.965881 -22.611799
v 37.815800 -0.480489 -20.219500
v -24.420000 10.692502 -22.855198
v -22.150000 7.914342 -23.477198
v -30.571899 10.692502 -22.855198
v 38.147003 2.965881 -22.611799
vn -0.0000 0.6157 0.7880
vn -0.0000 0.8525 0.5227
vn -0.0000 0.8660 0.5000
vn -0.0000 0.5000 -0.8660
vn -0.0000 -0.5000 0.8660
vn 1.0000 -0.0000 -0.0000
vn -0.0000 -0.8660 -0.5000
vn -1.0000 -0.0000 -0.0000
vn -0.0000 -0.6144 -0.7890
vn -0.0000 -0.6145 -0.7890
vn -0.0000 -0.6145 -0.7889
vn -0.0000 -0.0000 1.0000
vn -0.0000 0.2185 -0.9758
vn -0.8691 -0.4870 -0.0872
vn -0.8644 -0.4954 -0.0854
vn -0.9040 -0.3789 -0.1979
vn -0.9048 -0.3717 -0.2078
vn -0.5282 -0.5897 -0.6110
vn -0.3932 -0.5962 -0.6999
vn -0.5198 -0.6673 -0.5334
vn 0.5198 -0.6673 -0.5334
vn 0.3934 -0.5964 -0.6997
vn 0.5282 -0.5897 -0.6110
vn -0.9060 -0.1116 -0.4083
vn -0.9033 -0.1039 -0.4162
vn 0.5250 -0.4516 -0.7214
vn 0.3230 -0.4182 -0.8490
vn 0.1759 -0.1351 -0.9751
vn 0.3715 -0.2661 -0.8895
vn 0.9034 -0.3784 -0.2017
vn 0.9061 -0.3691 -0.2067
vn 0.8658 -0.4927 -0.0877
vn 0.8647 -0.4965 -0.0762
vn 0.9061 -0.1111 -0.4083
vn 0.9033 -0.1039 -0.4162
vn 0.6824 0.3489 -0.6424
vn 0.7422 0.2768 -0.6103
vn -0.3715 -0.2661 -0.8895
vn -0.0972 -0.2002 -0.9749
vn -0.2902 -0.4010 -0.8689
vn -0.1758 -0.6060 -0.7758
vn -0.1594 -0.1996 -0.9668
vn -0.6824 0.3484 -0.6426
vn -0.7424 0.2759 -0.6105
vn -0.5250 -0.4516 -0.7214
vn -0.0000 0.2830 -0.9591
vn 0.1140 -0.2319 -0.9660
vn 0.1753 -0.6065 -0.7755
vn -0.0000 -0.1919 -0.9814
vn -0.0000 -0.1918 -0.9814
vn -0.0000 -0.6157 -0.7880
vn -0.0909 0.2206 -0.9711
vn 0.2943 0.6754 -0.6762
vn 0.1906 0.7225 -0.6646
vn -0.0000 0.7880 -0.6157
vn 0.7476 0.6003 0.2839
vn 0.5664 0.8041 0.1803
vn 0.3712 0.9015 0.2225
vn 0.1096 0.9742 0.1974
vn -0.1905 0.7224 -0.6647
vn -0.2936 0.6759 -0.6760
vn -0.1093 0.9742 0.1974
vn -0.5661 0.8041 0.1814
vn -0.4861 0.8052 0.3396
vn -0.7167 0.4991 0.4870
vn -0.7329 0.1499 0.6636
vn -0.7112 0.3212 0.6254
vn -0.7021 0.3616 0.6134
vn 0.1969 -0.8881 -0.4154
vn 0.1838 -0.8900 -0.4173
vn 0.2472 -0.8791 -0.4075
vn 0.1570 -0.8935 -0.4208
vn -0.0000 -0.9991 0.0420
vn 0.2943 -0.8195 0.4918
vn 0.1906 -0.8197 0.5402
vn 0.4686 -0.7971 0.3810
vn 0.4781 -0.7980 0.3668
vn -0.0000 -0.7880 0.6157
vn 0.7022 0.3612 0.6136
vn 0.4723 0.1434 0.8697
vn 0.5591 -0.0014 0.8291
vn 0.1113 -0.0407 0.9930
vn 0.6903 0.4446 0.5708
vn 0.6907 0.4444 0.5705
vn -0.2472 -0.8791 -0.4075
vn -0.0884 -0.9267 -0.3652
vn -0.0978 -0.8987 -0.4275
vn -0.1030 -0.9938 0.0431
vn -0.0903 -0.9957 -0.0222
vn -0.2935 -0.8194 0.4923
vn -0.4679 -0.7972 0.3814
vn -0.1905 -0.8197 0.5402
vn -0.4781 -0.7983 0.3664
vn -0.1110 -0.0407 0.9930
vn -0.1570 -0.0586 0.9859
vn -0.3606 -0.1378 0.9225
vn 0.6433 0.2004 0.7389
vn 0.6423 0.6003 0.4766
vn -0.6440 0.2005 0.7383
vn -0.6421 0.6009 0.4760
vn 0.6305 -0.3254 0.7046
vn -0.6314 -0.3256 0.7039
vn 0.5645 -0.6025 0.5643
vn -0.5645 -0.6031 0.5636
vn 0.5254 0.7999 0.2900
vn -0.5251 0.8004 0.2892
vn 0.7071 -0.3536 0.6124
vn 0.7071 -0.3535 0.6124
vn 0.7071 0.3536 -0.6124
vn 0.7071 0.3535 -0.6124
vn -0.7071 0.3536 -0.6124
vn -0.7071 -0.3536 0.6124
vn 0.8612 0.3294 0.3870
vn 0.9455 0.3147 0.0842
vn 0.8090 0.4212 0.4100
vn 0.9040 0.4056 0.1354
vn 0.8137 0.2583 0.5207
vn 0.7562 0.3504 0.5526
vn 0.7902 -0.6113 -0.0435
vn 0.8594 -0.4193 -0.2927
vn 0.8940 -0.4478 0.0115
vn 0.9722 -0.1987 -0.1241
vn 0.7696 -0.5388 -0.3427
vn 0.7502 -0.4961 -0.4371
vn 0.4744 -0.8413 0.2591
vn 0.3278 -0.9417 0.0755
vn 0.5651 -0.8035 -0.1874
vn 0.3386 -0.8880 -0.3112
vn 0.1141 -0.9904 -0.0781
vn 0.2210 -0.9480 -0.2290
vn 0.6706 -0.7152 0.1968
vn 0.4804 -0.7728 -0.4147
vn 0.4880 -0.7697 -0.4116
vn 0.9148 0.4012 0.0459
vn 0.9492 0.3143 -0.0152
vn 0.9382 -0.1562 -0.3089
vn 0.9466 -0.1475 -0.2868
vn 0.9465 -0.1476 -0.2870
vn 0.9540 -0.1392 -0.2656
vn 0.6966 0.6589 0.2840
vn 0.7171 0.5045 0.4809
vn 0.6708 0.4439 0.5941
vn 0.5385 0.8424 0.0185
vn -0.0000 -0.9978 -0.0659
vn 0.3018 -0.8992 0.3168
vn 0.5179 -0.8102 0.2747
vn 0.0011 -0.8624 0.5062
vn 0.0102 -0.8470 0.5315
vn 0.0121 -0.8438 0.5366
vn -0.0000 -0.8642 0.5031
vn 0.2940 0.9544 0.0520
vn 0.2224 0.8767 0.4265
vn 0.3591 -0.1260 0.9248
vn 0.5451 0.0128 0.8382
vn 0.2474 -0.1858 0.9509
vn 0.5484 0.0240 0.8358
vn -0.0000 -0.3967 0.9179
vn 0.0141 -0.3872 0.9219
vn 0.0133 -0.3942 0.9189
vn -0.0000 -0.8716 -0.4902
vn -0.0000 -0.9148 0.4039
vn 0.4258 0.7956 -0.4309
vn 0.4474 0.7396 -0.5028
vn 0.4944 0.7036 -0.5104
vn 0.5267 0.7333 -0.4300
vn -0.8612 0.3294 0.3870
vn -0.8090 0.4212 0.4100
vn -0.9455 0.3147 0.0842
vn -0.9040 0.4056 0.1354
vn -0.8137 0.2583 0.5207
vn -0.7562 0.3504 0.5526
vn -0.7902 -0.6113 -0.0435
vn -0.8940 -0.4478 0.0115
vn -0.8594 -0.4193 -0.2927
vn -0.9722 -0.1987 -0.1241
vn -0.7696 -0.5388 -0.3427
vn -0.7502 -0.4961 -0.4371
vn -0.4744 -0.8413 0.2591
vn -0.5651 -0.8035 -0.1874
vn -0.3507 -0.9359 0.0335
vn -0.2683 -0.9588 -0.0931
vn -0.3386 -0.8880 -0.3112
vn -0.3456 -0.8827 -0.3184
vn -0.6706 -0.7152 0.1968
vn -0.4804 -0.7728 -0.4147
vn -0.4880 -0.7697 -0.4116
vn -0.7499 0.6164 -0.2403
vn -0.7665 0.5662 -0.3031
vn -0.7508 0.0002 -0.6606
vn -0.9465 -0.1476 -0.2870
vn -0.7789 -0.0379 -0.6260
vn -0.9540 -0.1392 -0.2656
vn -0.6966 0.6589 0.2840
vn -0.7171 0.5045 0.4809
vn -0.6708 0.4439 0.5941
vn -0.5385 0.8424 0.0185
vn -0.2446 -0.9451 0.2165
vn -0.3018 -0.8992 0.3168
vn -0.5179 -0.8102 0.2747
vn -0.0121 -0.8438 0.5366
vn -0.3591 -0.1260 0.9248
vn -0.2474 -0.1858 0.9509
vn -0.5451 0.0128 0.8382
vn -0.5484 0.0240 0.8358
vn -0.0141 -0.3872 0.9219
vn -0.0133 -0.3942 0.9189
vn -0.1968 0.8340 -0.5154
vn -0.3227 0.7605 -0.5635
vn -0.3084 0.1235 -0.9432
vn -0.2108 0.1793 -0.9609
vn -0.1366 0.9896 0.0448
vn -0.0000 0.8276 -0.5613
vn -0.0000 0.9993 0.0377
vn -0.0000 -0.0000 -1.0000
vn -0.0000 0.7198 -0.6942
vn -0.1148 0.8912 0.4388
vn -0.0000 0.8950 0.4460
vn 0.2270 0.8509 0.4737
vn 0.2046 0.4006 0.8931
vn 0.2614 0.6892 0.6758
vn 0.2221 0.8431 0.4897
vn 0.2230 0.8429 0.4897
vn 0.4291 0.2510 0.8677
vn 0.2397 0.2298 0.9433
vn 0.0162 0.3550 0.9347
vn 0.0113 0.2485 0.9686
vn -0.0113 0.2485 0.9686
vn -0.0162 0.3550 0.9347
vn -0.2398 0.2298 0.9433
vn -0.2046 0.4006 0.8931
vn 0.0079 0.1242 0.9922
vn -0.0079 0.1242 0.9922
vn -0.2270 0.8509 0.4737
vn -0.2614 0.6892 0.6758
vn -0.2221 0.8431 0.4897
vn -0.2230 0.8429 0.4897
vn -0.4291 0.2510 0.8677
vn 0.4035 -0.4167 -0.8146
vn 0.5004 -0.5409 -0.6761
vn 0.2724 -0.3685 -0.8888
vn 0.5191 -0.5205 -0.6780
vn 0.1950 -0.2598 -0.9458
vn 0.3084 0.1235 -0.9432
vn 0.5030 0.0734 -0.8612
vn 0.2108 0.1793 -0.9609
vn 0.4292 0.1552 -0.8898
vn -0.0000 -0.1723 -0.9851
vn -0.2724 -0.3685 -0.8888
vn -0.1950 -0.2598 -0.9458
vn -0.4035 -0.4167 -0.8146
vn -0.5004 -0.5409 -0.6761
vn -0.5191 -0.5205 -0.6780
vn -0.1821 -0.5724 -0.7995
vn -0.2537 -0.5679 -0.7830
vn -0.0000 -0.5702 -0.8215
vt 0.296875 1.453130
vt 0.296875 1.140630
vt 0.710938 1.453130
vt 0.710938 1.140630
vt 0.007789 0.867603
vt 0.048267 0.867603
vt 0.007789 0.919705
vt 0.048267 0.919705
vt 0.007812 0.937500
vt 0.080729 0.937500
vt 0.007812 0.992188
vt 0.080729 0.992188
vt 0.077967 0.966191
vt 0.135471 0.966191
vt 0.077967 0.965823
vt 0.135471 0.965823
vt 0.226563 0.937500
vt 0.226563 0.992188
vt 0.171875 0.937500
vt 0.171875 0.992188
vt 0.769793 0.737354
vt 0.784019 0.727543
vt 0.608085 0.737354
vt 0.593697 0.727543
vt 0.784132 0.705551
vt 0.593564 0.705551
vt 0.769796 0.696885
vt 0.607901 0.696885
vt 0.296875 1.437500
vt 0.296875 1.148440
vt 0.710938 1.437500
vt 0.710938 1.148440
vt 0.984375 1.015630
vt 0.960938 0.968750
vt 0.242188 2.000000
vt 0.242188 1.615980
vt 0.429688 1.960830
vt 0.429688 1.671880
vt 0.992188 1.615980
vt 0.804688 1.671880
vt 0.992188 2.000000
vt 0.804688 1.960830
vt 0.792994 0.633161
vt 0.793040 0.647022
vt 0.441220 0.633161
vt 0.441174 0.647022
vt 0.792994 0.623170
vt 0.441220 0.623170
vt 0.793040 0.624555
vt 0.441174 0.624555
vt 0.793079 0.660499
vt 0.441136 0.660499
vt 0.077967 0.966560
vt 0.135471 0.966560
vt 0.135471 0.965455
vt 0.077967 0.965455
vt 0.021706 0.564019
vt 0.031935 0.801135
vt 0.078049 0.645229
vt 0.078049 0.745469
vt 0.006830 0.645229
vt 0.006830 0.745469
vt 0.871491 0.593780
vt 0.979358 0.502898
vt 0.992348 0.593780
vt 0.548641 0.502898
vt 0.656508 0.593780
vt 0.535651 0.593780
vt 0.091372 0.745469
vt 0.091372 0.645229
vt 0.227921 0.645229
vt 0.227921 0.696147
vt 0.204569 0.745469
vt 0.718750 1.460940
vt 0.992188 1.484380
vt 0.289063 1.460940
vt 0.007812 1.484380
vt 0.968750 1.007810
vt 0.718750 1.132810
vt 0.039062 1.007810
vt 0.289063 1.132810
vt 0.718750 1.007810
vt 0.289063 1.007810
vt 0.028100 0.498084
vt 0.143176 0.592099
vt 0.082582 0.592099
vt 0.461851 0.592099
vt 0.576926 0.498084
vt 0.522445 0.592099
s 0
usemtl hat_dsMt_mat
f 60/1/1 61/2/1 62/3/1
f 61/2/1 63/4/1 62/3/1
f 105/5/2 106/6/2 107/7/2
f 106/6/2 108/8/2 107/7/2
f 123/9/3 124/10/3 125/11/3
f 124/10/3 126/12/3 125/11/3
f 137/13/4 138/14/4 139/15/4
f 138/14/4 140/16/4 139/15/4
f 141/10/3 142/12/3 143/9/3
f 142/12/3 144/11/3 143/9/3
f 145/17/3 146/18/3 147/19/3
f 146/18/3 148/20/3 147/19/3
f 151/14/5 152/13/5 153/16/5
f 152/13/5 154/15/5 153/16/5
f 155/13/6 156/14/6 157/13/6
f 156/14/6 158/14/6 157/13/6
f 159/14/7 160/16/7 161/14/7
f 160/16/7 162/16/7 161/14/7
f 163/16/8 164/15/8 165/16/8
f 164/15/8 166/15/8 165/16/8
f 167/10/3 168/12/3 169/9/3
f 168/12/3 170/11/3 169/9/3
f 171/14/6 172/13/6 173/14/6
f 172/13/6 174/13/6 173/14/6
f 175/10/3 176/12/3 177/9/3
f 176/12/3 178/11/3 177/9/3
f 179/15/8 180/16/8 181/15/8
f 180/16/8 182/16/8 181/15/8
f 183/16/7 184/14/7 185/16/7
f 184/14/7 186/14/7 185/16/7
f 187/21/9 188/22/9 189/23/9
f 188/22/10 190/24/10 189/23/10
f 188/22/11 191/25/11 190/24/11
f 191/25/11 192/26/11 190/24/11
f 191/25/10 193/27/10 192/26/10
f 193/27/10 194/28/10 192/26/10
f 321/29/3 322/30/3 323/31/3
f 322/30/3 324/32/3 323/31/3
f 369/33/12 367/33/12 370/33/12
f 367/33/13 369/33/13 374/33/13
f 369/33/13 375/33/13 374/33/13
s 1
f 1/34/14 2/34/15 3/34/16
f 2/34/15 4/34/17 3/34/16
f 5/34/18 6/34/19 7/34/20
f 8/34/21 9/34/22 10/34/23
f 11/34/24 12/34/25 4/34/17
f 12/34/25 3/34/16 4/34/17
f 10/34/23 9/34/22 13/34/26
f 9/34/22 14/34/27 13/34/26
f 15/34/28 16/34/29 14/34/27
f 16/34/29 13/34/26 14/34/27
f 17/34/30 18/34/31 19/34/32
f 18/34/31 20/34/33 19/34/32
f 21/34/34 18/34/31 22/34/35
f 18/34/31 17/34/30 22/34/35
f 22/34/35 23/34/36 21/34/34
f 23/34/36 24/34/37 21/34/34
f 25/34/38 26/34/39 27/34/40
f 6/34/19 27/34/40 28/34/41
f 27/34/40 29/34/42 28/34/41
f 12/34/25 11/34/24 30/34/43
f 11/34/24 31/34/44 30/34/43
f 32/34/45 25/34/38 27/34/40
f 5/34/18 32/34/45 6/34/19
f 32/34/45 27/34/40 6/34/19
f 33/34/46 15/34/28 34/34/47
f 15/34/28 14/34/27 34/34/47
f 35/34/48 34/34/47 9/34/22
f 34/34/47 14/34/27 9/34/22
f 36/34/49 37/34/50 38/34/51
f 37/34/50 39/34/51 38/34/51
f 26/34/39 40/34/52 27/34/40
f 40/34/52 29/34/42 27/34/40
f 41/34/53 24/34/37 42/34/54
f 24/34/37 23/34/36 42/34/54
f 41/34/53 42/34/54 43/34/55
f 44/34/56 45/34/57 46/34/58
f 45/34/57 47/34/59 46/34/58
f 30/34/43 31/34/44 48/34/60
f 31/34/44 49/34/61 48/34/60
f 50/34/55 49/34/61 43/34/55
f 49/34/61 41/34/53 43/34/55
f 37/34/50 36/34/49 51/34/46
f 36/34/49 52/34/46 51/34/46
f 53/34/62 54/34/63 55/34/64
f 54/34/63 56/34/65 55/34/64
f 50/34/55 48/34/60 49/34/61
f 55/34/64 46/34/58 53/34/62
f 46/34/58 47/34/59 53/34/62
f 57/34/66 58/34/67 59/34/68
f 55/34/64 56/34/65 58/34/67
f 56/34/65 59/34/68 58/34/67
f 64/34/69 65/34/70 66/34/71
f 65/34/70 64/34/69 35/34/72
f 64/34/73 67/34/73 68/34/73
f 69/34/74 70/34/75 71/34/76
f 70/34/75 72/34/77 71/34/76
f 73/34/78 70/34/75 69/34/74
f 74/34/79 75/34/80 76/34/81
f 75/34/80 77/34/82 76/34/81
f 74/34/79 78/34/83 75/34/80
f 78/34/83 79/34/84 75/34/80
f 80/34/85 81/34/86 82/34/87
f 83/34/88 84/34/89 81/34/86
f 84/34/89 82/34/87 81/34/86
f 85/34/73 86/34/73 87/34/73
f 86/34/73 88/34/73 87/34/73
f 89/34/90 90/34/91 91/34/92
f 90/34/91 92/34/93 91/34/92
f 93/34/94 94/34/95 95/34/96
f 89/34/90 96/34/78 69/34/74
f 96/34/78 73/34/78 69/34/74
f 94/34/95 93/34/94 75/34/80
f 93/34/94 77/34/82 75/34/80
f 89/34/90 91/34/92 96/34/78
f 97/35/1 98/36/1 99/37/1
f 98/36/1 100/38/1 99/37/1
f 98/36/1 101/39/1 100/38/1
f 101/39/1 102/40/1 100/38/1
f 101/39/1 103/41/1 102/40/1
f 103/41/1 104/42/1 102/40/1
f 103/41/1 97/35/1 104/42/1
f 97/35/1 99/37/1 104/42/1
f 109/43/97 110/44/98 111/45/99
f 110/44/98 112/46/100 111/45/99
f 113/47/101 114/48/102 115/49/103
f 114/48/102 116/50/104 115/49/103
f 115/49/103 117/51/105 113/47/101
f 113/47/101 117/51/105 109/43/97
f 110/44/98 109/43/97 117/51/105
f 116/50/104 114/48/102 118/52/106
f 114/48/102 111/45/99 118/52/106
f 111/45/99 112/46/100 118/52/106
f 114/48/102 113/47/101 111/45/99
f 113/47/101 109/43/97 111/45/99
f 112/46/100 110/44/98 118/52/106
f 110/44/98 117/51/105 118/52/106
f 119/53/107 120/13/5 121/54/108
f 120/13/5 122/14/5 121/54/108
f 127/54/109 128/14/4 129/53/110
f 128/14/4 130/13/4 129/53/110
f 121/54/108 127/54/109 119/53/107
f 127/54/109 129/53/110 119/53/107
f 131/55/111 132/55/112 133/56/111
f 132/55/112 134/56/112 133/56/111
f 135/15/4 136/16/4 133/56/111
f 136/16/4 131/55/111 133/56/111
f 149/16/5 150/15/5 132/55/112
f 150/15/5 134/56/112 132/55/112
f 195/33/113 196/33/114 197/33/115
f 196/33/114 198/33/116 197/33/115
f 199/33/117 195/33/113 200/33/118
f 195/33/113 197/33/115 200/33/118
f 201/57/119 202/57/120 203/57/121
f 202/57/120 204/57/122 203/57/121
f 205/57/123 206/57/124 202/57/120
f 207/57/125 208/57/126 209/57/127
f 210/58/128 211/58/129 212/58/130
f 207/57/125 209/57/127 201/57/119
f 213/57/131 207/57/125 203/57/121
f 207/57/125 201/57/119 203/57/121
f 210/58/128 212/58/130 214/58/132
f 212/58/130 215/58/133 214/58/132
f 205/57/123 202/57/120 209/57/127
f 202/57/120 201/57/119 209/57/127
f 216/33/134 198/33/116 217/33/135
f 198/33/116 196/33/114 217/33/135
f 218/59/136 219/60/137 220/61/138
f 219/60/137 221/62/139 220/61/138
f 198/33/116 222/33/140 197/33/115
f 222/33/140 223/33/141 197/33/115
f 197/33/115 223/33/141 200/33/118
f 223/33/141 224/33/142 200/33/118
f 216/33/134 225/33/143 198/33/116
f 225/33/143 222/33/140 198/33/116
f 212/58/130 211/58/129 226/58/144
f 211/58/129 227/58/144 226/58/144
f 208/57/126 207/57/125 228/57/145
f 229/57/146 228/57/145 213/57/131
f 228/57/145 207/57/125 213/57/131
f 230/63/147 231/64/148 232/65/149
f 231/64/148 230/63/147 233/66/150
f 230/63/147 234/67/150 233/66/150
f 225/33/143 235/33/151 222/33/140
f 235/33/151 236/33/152 222/33/140
f 237/33/153 238/33/154 239/33/155
f 238/33/154 240/33/156 239/33/155
f 241/57/157 242/57/157 243/57/157
f 242/57/157 244/57/157 243/57/157
f 239/33/155 245/33/158 237/33/153
f 245/33/158 246/33/159 237/33/153
f 215/58/160 247/58/160 248/58/160
f 247/58/160 226/58/160 248/58/160
f 249/57/161 228/57/161 250/57/161
f 228/57/161 251/57/161 250/57/161
f 252/33/162 225/33/143 253/33/163
f 253/33/163 254/33/164 252/33/162
f 254/33/164 255/33/165 252/33/162
f 252/33/162 235/33/151 225/33/143
f 256/33/166 257/33/167 258/33/168
f 257/33/167 259/33/169 258/33/168
f 260/33/170 261/33/171 256/33/166
f 261/33/171 257/33/167 256/33/166
f 262/57/172 263/57/173 264/57/174
f 263/57/173 265/57/175 264/57/174
f 266/57/176 264/57/174 267/57/177
f 268/57/178 269/57/179 250/57/180
f 270/58/181 271/58/182 272/58/183
f 268/57/178 262/57/172 269/57/179
f 273/57/184 263/57/173 268/57/178
f 263/57/173 262/57/172 268/57/178
f 271/58/182 274/58/185 272/58/183
f 274/58/185 248/58/186 272/58/183
f 266/57/176 269/57/179 264/57/174
f 269/57/179 262/57/172 264/57/174
f 275/33/187 276/33/188 259/33/169
f 276/33/188 258/33/168 259/33/169
f 277/59/189 278/61/190 279/60/191
f 278/61/190 280/62/192 279/60/191
f 259/33/169 257/33/167 281/33/193
f 257/33/167 282/33/194 281/33/193
f 257/33/167 261/33/171 282/33/194
f 261/33/171 283/33/195 282/33/194
f 275/33/187 259/33/169 284/33/196
f 259/33/169 281/33/193 284/33/196
f 285/57/197 286/57/198 268/57/178
f 287/57/199 273/57/184 286/57/198
f 273/57/184 268/57/178 286/57/198
f 288/67/200 289/68/200 290/66/200
f 291/33/201 292/33/202 293/33/203
f 292/33/202 294/33/204 293/33/203
f 292/33/202 291/33/201 295/33/205
f 291/33/201 296/33/206 295/33/205
f 297/33/207 275/33/187 284/33/196
f 275/33/187 297/33/207 276/33/188
f 297/33/207 298/33/208 276/33/188
f 299/69/209 300/70/210 279/60/191
f 300/70/210 277/59/189 279/60/191
f 297/33/207 284/33/196 301/33/211
f 302/33/212 297/33/207 303/33/213
f 297/33/207 301/33/211 303/33/213
f 304/71/13 300/70/210 305/72/13
f 300/70/210 299/69/209 305/72/13
f 305/72/13 299/69/209 306/73/13
f 297/33/207 302/33/212 298/33/208
f 307/33/214 298/33/208 308/33/215
f 298/33/208 302/33/212 308/33/215
f 309/33/215 308/33/215 302/33/212
f 310/33/216 311/33/217 301/33/211
f 311/33/217 303/33/213 301/33/211
f 284/33/196 281/33/193 301/33/211
f 281/33/193 310/33/216 301/33/211
f 312/74/3 313/75/3 314/76/3
f 313/75/3 315/77/3 314/76/3
f 313/75/3 312/74/3 316/78/3
f 312/74/3 317/79/3 316/78/3
f 318/33/218 319/33/219 320/33/220
f 311/33/221 319/33/219 325/33/222
f 319/33/219 318/33/218 325/33/222
f 320/33/220 319/33/219 326/33/223
f 319/33/219 327/33/224 326/33/223
f 319/33/219 328/33/225 327/33/224
f 328/33/225 329/33/226 327/33/224
f 330/33/227 331/33/228 332/33/229
f 331/33/228 333/33/230 332/33/229
f 329/33/226 328/33/225 330/33/227
f 328/33/225 331/33/228 330/33/227
f 329/33/226 334/33/231 327/33/224
f 330/33/227 335/33/232 329/33/226
f 335/33/232 334/33/231 329/33/226
f 336/33/233 337/33/234 333/33/230
f 310/33/235 338/33/236 333/33/230
f 338/33/236 336/33/233 333/33/230
f 337/33/234 339/33/237 333/33/230
f 339/33/237 332/33/229 333/33/230
f 330/33/227 332/33/229 335/33/232
f 315/77/3 340/80/3 314/76/3
f 340/80/3 341/81/3 314/76/3
f 317/79/3 341/81/3 342/82/3
f 341/81/3 343/83/3 342/82/3
f 343/83/3 341/81/3 340/80/3
f 317/79/3 342/82/3 316/78/3
f 344/57/238 345/57/239 346/57/240
f 347/58/241 348/58/241 349/58/241
f 350/57/242 344/57/238 346/57/240
f 351/69/243 352/60/244 353/70/245
f 352/60/244 354/59/246 353/70/245
f 350/57/242 346/57/240 355/57/247
f 356/84/247 357/85/247 358/86/247
f 359/87/247 360/88/247 361/89/247
f 362/57/248 363/57/249 364/57/247
f 365/33/13 366/33/13 367/33/13
f 366/33/13 368/33/13 367/33/13
f 367/33/13 368/33/13 370/33/13
f 351/69/243 353/70/245 371/72/13
f 353/70/245 372/71/13 371/72/13
f 351/69/243 371/72/13 373/73/13
f 355/57/13 376/57/13 377/57/13
f 376/57/13 378/57/13 377/57/13
f 379/57/250 362/57/248 380/57/251
f 381/58/252 382/58/253 383/58/254
f 363/57/249 362/57/248 379/57/250
f 384/58/255 385/58/255 382/58/253
f 385/58/255 383/58/254 382/58/253
f 386/57/13 387/57/13 388/57/13
f 387/57/13 364/57/13 388/57/13
f 357/85/247 389/84/247 359/87/247
f 389/84/247 360/88/247 359/87/247
o vsn_mesh_1__mesh_1_
v 25.791199 4.952549 3.360250
v 30.759100 4.952549 3.360250
v 25.791199 7.421430 -0.950780
v 30.759100 7.421430 -0.950780
v 29.931200 2.895149 6.952780
v 34.899097 2.895149 6.952780
v 29.931200 5.364029 2.641751
v 34.899097 5.364029 2.641751
v 29.931200 7.009950 -0.232275
v 34.899097 7.009950 -0.232275
v 29.931200 9.478821 -4.543299
v 34.899097 9.478821 -4.543299
v 34.071098 4.952549 3.360250
v 39.039001 4.952549 3.360250
v 34.071098 7.421430 -0.950780
v 39.039001 7.421430 -0.950780
vn -0.0000 0.8678 0.4970
vt 0.071507 0.766403
vt 0.219458 0.766403
vt 0.071507 0.914355
vt 0.219458 0.914355
vt 0.460217 0.766403
vt 0.608169 0.766403
vt 0.460217 0.914355
vt 0.608169 0.914355
s 0
usemtl hat_ds_alphaMt_mat
f 390/90/256 391/91/256 392/92/256
f 391/91/256 393/93/256 392/92/256
f 394/94/256 395/95/256 396/96/256
f 395/95/256 397/97/256 396/96/256
f 398/90/256 399/91/256 400/92/256
f 399/91/256 401/93/256 400/92/256
f 402/94/256 403/95/256 404/96/256
f 403/95/256 405/97/256 404/96/256
